<svg width="37" height="18" viewBox="0 0 37 18" fill="none" xmlns="http://www.w3.org/2000/svg">
<path d="M28.7605 3.58169C28.1547 3.85012 27.504 4.0315 26.8198 4.11348C27.5257 3.69109 28.0539 3.02631 28.3056 2.24317C27.6424 2.6371 26.9166 2.91438 26.1597 3.06297C25.6506 2.51948 24.9764 2.15925 24.2417 2.0382C23.507 1.91715 22.7528 2.04206 22.0964 2.39353C21.4399 2.745 20.9178 3.30337 20.6112 3.98195C20.3046 4.66053 20.2306 5.42135 20.4007 6.14629C19.0569 6.07882 17.7423 5.72954 16.5422 5.12111C15.3421 4.51268 14.2833 3.65871 13.4346 2.61462C13.1444 3.1152 12.9775 3.69559 12.9775 4.31371C12.9772 4.87016 13.1142 5.41808 13.3765 5.90886C13.6387 6.39965 14.018 6.81812 14.4807 7.12715C13.9441 7.11008 13.4193 6.96507 12.95 6.70419V6.74772C12.9499 7.52816 13.2199 8.28458 13.714 8.88864C14.2082 9.49269 14.8961 9.90717 15.6611 10.0618C15.1633 10.1965 14.6413 10.2163 14.1347 10.1198C14.3505 10.7913 14.7709 11.3785 15.3371 11.7992C15.9032 12.22 16.5868 12.4531 17.292 12.466C16.0948 13.4058 14.6163 13.9156 13.0943 13.9134C12.8247 13.9134 12.5554 13.8977 12.2876 13.8662C13.8325 14.8595 15.6309 15.3867 17.4676 15.3847C23.685 15.3847 27.0839 10.2351 27.0839 5.76904C27.0839 5.62394 27.0803 5.47739 27.0738 5.3323C27.7349 4.85418 28.3056 4.26212 28.7591 3.58387L28.7605 3.58169Z" fill="white"/>
</svg>
