<svg width="18" height="18" viewBox="0 0 18 18" fill="none" xmlns="http://www.w3.org/2000/svg">
<path fill-rule="evenodd" clip-rule="evenodd" d="M5.59885 0.799627C6.47859 0.759128 6.75909 0.750128 9.00008 0.750128C11.2411 0.750128 11.5216 0.759878 12.4006 0.799627C13.2796 0.839377 13.8795 0.979626 14.4045 1.18288C14.9543 1.39062 15.453 1.71537 15.8655 2.13537C16.2855 2.54712 16.6095 3.04511 16.8165 3.59561C17.0205 4.12061 17.16 4.7206 17.2005 5.5981C17.241 6.47934 17.25 6.75984 17.25 9.00008C17.25 11.2411 17.2403 11.5216 17.2005 12.4013C17.1608 13.2788 17.0205 13.8788 16.8165 14.4038C16.6095 14.9544 16.285 15.4532 15.8655 15.8655C15.453 16.2855 14.9543 16.6095 14.4045 16.8165C13.8795 17.0205 13.2796 17.16 12.4021 17.2005C11.5216 17.241 11.2411 17.25 9.00008 17.25C6.75909 17.25 6.47859 17.2403 5.59885 17.2005C4.72135 17.1608 4.12136 17.0205 3.59636 16.8165C3.0458 16.6095 2.54698 16.285 2.13462 15.8655C1.71491 15.4535 1.39011 14.955 1.18288 14.4045C0.979626 13.8795 0.840127 13.2796 0.799627 12.4021C0.759128 11.5208 0.750128 11.2403 0.750128 9.00008C0.750128 6.75909 0.759878 6.47859 0.799627 5.5996C0.839377 4.7206 0.979626 4.12061 1.18288 3.59561C1.39042 3.04517 1.71546 2.5466 2.13537 2.13462C2.54715 1.715 3.04547 1.39021 3.59561 1.18288C4.12061 0.979626 4.7206 0.840127 5.5981 0.799627H5.59885ZM12.3338 2.28462C11.4638 2.24487 11.2028 2.23662 9.00008 2.23662C6.79734 2.23662 6.53634 2.24487 5.66635 2.28462C4.8616 2.32137 4.42511 2.45562 4.13411 2.56887C3.74936 2.71887 3.47411 2.89662 3.18536 3.18536C2.91165 3.45165 2.701 3.77582 2.56887 4.13411C2.45562 4.42511 2.32137 4.8616 2.28462 5.66635C2.24487 6.53634 2.23662 6.79734 2.23662 9.00008C2.23662 11.2028 2.24487 11.4638 2.28462 12.3338C2.32137 13.1386 2.45562 13.5751 2.56887 13.866C2.70087 14.2238 2.91161 14.5485 3.18536 14.8148C3.45161 15.0885 3.77636 15.2993 4.13411 15.4313C4.42511 15.5445 4.8616 15.6788 5.66635 15.7155C6.53634 15.7553 6.79659 15.7635 9.00008 15.7635C11.2036 15.7635 11.4638 15.7553 12.3338 15.7155C13.1386 15.6788 13.5751 15.5445 13.866 15.4313C14.2508 15.2813 14.526 15.1035 14.8148 14.8148C15.0885 14.5485 15.2993 14.2238 15.4313 13.866C15.5445 13.5751 15.6788 13.1386 15.7155 12.3338C15.7553 11.4638 15.7635 11.2028 15.7635 9.00008C15.7635 6.79734 15.7553 6.53634 15.7155 5.66635C15.6788 4.8616 15.5445 4.42511 15.4313 4.13411C15.2813 3.74936 15.1035 3.47411 14.8148 3.18536C14.5485 2.91167 14.2243 2.70102 13.866 2.56887C13.5751 2.45562 13.1386 2.32137 12.3338 2.28462ZM7.94633 11.5433C8.53483 11.7883 9.19011 11.8213 9.80027 11.6369C10.4104 11.4524 10.9376 11.0618 11.2918 10.5318C11.6459 10.0017 11.8051 9.36523 11.7421 8.73091C11.6791 8.09659 11.3978 7.50382 10.9463 7.05384C10.6585 6.7662 10.3105 6.54595 9.92732 6.40895C9.54417 6.27196 9.1354 6.22162 8.73045 6.26156C8.3255 6.3015 7.93445 6.43073 7.58544 6.63994C7.23643 6.84915 6.93815 7.13315 6.71207 7.47148C6.48599 7.8098 6.33774 8.19405 6.27798 8.59655C6.21823 8.99905 6.24846 9.4098 6.3665 9.79921C6.48454 10.1886 6.68745 10.547 6.96063 10.8486C7.23381 11.1502 7.57046 11.3875 7.94633 11.5433ZM6.0016 6.0016C6.39536 5.60783 6.86283 5.29548 7.37731 5.08237C7.89179 4.86927 8.44321 4.75958 9.00008 4.75958C9.55695 4.75958 10.1084 4.86927 10.6228 5.08237C11.1373 5.29548 11.6048 5.60783 11.9986 6.0016C12.3923 6.39536 12.7047 6.86283 12.9178 7.37731C13.1309 7.89179 13.2406 8.44321 13.2406 9.00008C13.2406 9.55695 13.1309 10.1084 12.9178 10.6228C12.7047 11.1373 12.3923 11.6048 11.9986 11.9986C11.2033 12.7938 10.1247 13.2406 9.00008 13.2406C7.87543 13.2406 6.79684 12.7938 6.0016 11.9986C5.20635 11.2033 4.75958 10.1247 4.75958 9.00008C4.75958 7.87543 5.20635 6.79684 6.0016 6.0016ZM14.181 5.3911C14.2786 5.29905 14.3567 5.18836 14.4108 5.06558C14.4648 4.9428 14.4937 4.81043 14.4956 4.6763C14.4976 4.54217 14.4726 4.40902 14.4222 4.28471C14.3717 4.16041 14.2969 4.04749 14.202 3.95264C14.1072 3.85778 13.9942 3.78293 13.8699 3.7325C13.7456 3.68207 13.6125 3.65709 13.4784 3.65905C13.3442 3.661 13.2119 3.68985 13.0891 3.74388C12.9663 3.79791 12.8556 3.87603 12.7636 3.97361C12.5845 4.16338 12.4865 4.41545 12.4903 4.6763C12.4941 4.93716 12.5995 5.18626 12.7839 5.37073C12.9684 5.5552 13.2175 5.66052 13.4784 5.66432C13.7392 5.66813 13.9913 5.57012 14.181 5.3911Z" fill="white"/>
</svg>
