<svg width="46" height="46" viewBox="0 0 46 46" fill="none" xmlns="http://www.w3.org/2000/svg">
<path d="M22.9999 44.5625C34.9086 44.5625 44.5625 34.9086 44.5625 22.9999C44.5625 11.0913 34.9086 1.43742 22.9999 1.43742C11.0913 1.43742 1.43742 11.0913 1.43742 22.9999C1.43742 34.9086 11.0913 44.5625 22.9999 44.5625Z" fill="#75A843"/>
<path d="M22.9999 44.5625C34.9086 44.5625 44.5625 34.9086 44.5625 22.9999C44.5625 11.0913 34.9086 1.43742 22.9999 1.43742C11.0913 1.43742 1.43742 11.0913 1.43742 22.9999C1.43742 34.9086 11.0913 44.5625 22.9999 44.5625Z" fill="#699635"/>
<path d="M18.6877 33.1344C24.2848 33.1344 28.8221 28.5971 28.8221 23C28.8221 17.4029 24.2848 12.8656 18.6877 12.8656C13.0907 12.8656 8.55336 17.4029 8.55336 23C8.55336 28.5971 13.0907 33.1344 18.6877 33.1344Z" fill="#ED4C5C"/>
</svg>
