<svg width="36" height="36" viewBox="0 0 36 36" fill="none" xmlns="http://www.w3.org/2000/svg">
<path d="M4.5 16.5L31.5 9V27L4.5 21V16.5Z" stroke="#BC7AF2" stroke-width="2" stroke-linecap="round" stroke-linejoin="round"/>
<path d="M17.4001 25.2C17.2425 25.7712 16.9739 26.3059 16.6097 26.7733C16.2455 27.2408 15.7928 27.6319 15.2775 27.9244C14.7621 28.2169 14.1942 28.4051 13.6061 28.4781C13.018 28.5511 12.4213 28.5076 11.8501 28.35C11.2788 28.1924 10.7442 27.9238 10.2768 27.5596C9.80929 27.1954 9.41814 26.7427 9.12564 26.2274C8.83313 25.712 8.645 25.1441 8.57198 24.556C8.49897 23.9679 8.54249 23.3712 8.70008 22.8" stroke="#BC7AF2" stroke-width="2" stroke-linecap="round" stroke-linejoin="round"/>
</svg>
