<svg width="41" height="41" viewBox="0 0 41 41" fill="none" xmlns="http://www.w3.org/2000/svg">
<g filter="url(#filter0_d_30_92)">
<path d="M20.5 7.43406C19.2747 7.43406 18.077 7.7974 17.0582 8.47812C16.0394 9.15884 15.2454 10.1264 14.7765 11.2584C14.3076 12.3904 14.1849 13.636 14.424 14.8377C14.663 16.0394 15.253 17.1433 16.1194 18.0097C16.9858 18.8761 18.0897 19.4661 19.2914 19.7051C20.4931 19.9442 21.7387 19.8215 22.8707 19.3526C24.0027 18.8837 24.9703 18.0897 25.651 17.0709C26.3317 16.0521 26.695 14.8544 26.695 13.6291C26.695 11.9861 26.0424 10.4104 24.8806 9.24855C23.7188 8.08676 22.143 7.43406 20.5 7.43406ZM20.5 17.3461C19.7648 17.3461 19.0462 17.1281 18.4349 16.7197C17.8237 16.3113 17.3472 15.7308 17.0659 15.0516C16.7846 14.3724 16.711 13.625 16.8544 12.904C16.9978 12.1829 17.3518 11.5206 17.8717 11.0008C18.3915 10.4809 19.0538 10.1269 19.7748 9.98351C20.4959 9.84008 21.2432 9.91369 21.9224 10.195C22.6016 10.4764 23.1822 10.9528 23.5906 11.564C23.999 12.1753 24.217 12.894 24.217 13.6291C24.216 14.6146 23.8241 15.5595 23.1272 16.2564C22.4304 16.9532 21.4855 17.3452 20.5 17.3461Z" fill="white"/>
<path d="M20.5 0C17.0693 0 13.7156 1.01733 10.863 2.92335C8.01043 4.82937 5.78713 7.53847 4.47424 10.7081C3.16135 13.8777 2.81784 17.3654 3.48715 20.7302C4.15645 24.095 5.80851 27.1858 8.23442 29.6117C10.6603 32.0376 13.7511 33.6897 17.1159 34.359C20.4808 35.0283 23.9685 34.6848 27.1381 33.3719C30.3077 32.059 33.0168 29.8357 34.9228 26.9832C36.8288 24.1306 37.8461 20.7769 37.8461 17.3461C37.8409 12.7473 36.0117 8.33826 32.7598 5.08636C29.5079 1.83447 25.0989 0.00524687 20.5 0ZM13.0659 30.2034V28.4972C13.0669 27.5117 13.4588 26.5669 14.1557 25.87C14.8526 25.1731 15.7974 24.7812 16.783 24.7802H24.217C25.2025 24.7812 26.1474 25.1731 26.8443 25.87C27.5411 26.5669 27.9331 27.5117 27.9341 28.4972V30.2034C25.678 31.5207 23.1125 32.2149 20.5 32.2149C17.8875 32.2149 15.322 31.5207 13.0659 30.2034ZM30.4022 28.4056C30.3775 26.7804 29.7153 25.23 28.5584 24.0883C27.4015 22.9467 25.8424 22.3053 24.217 22.3022H16.783C15.1576 22.3053 13.5985 22.9467 12.4416 24.0883C11.2847 25.23 10.6225 26.7804 10.5978 28.4056C8.35096 26.3993 6.76647 23.7579 6.05417 20.8311C5.34186 17.9043 5.53535 14.8301 6.609 12.0158C7.68265 9.20136 9.58582 6.77945 12.0665 5.07073C14.5472 3.36201 17.4884 2.44708 20.5006 2.44708C23.5128 2.44708 26.454 3.36201 28.9347 5.07073C31.4154 6.77945 33.3186 9.20136 34.3922 12.0158C35.4659 14.8301 35.6594 17.9043 34.9471 20.8311C34.2348 23.7579 32.649 26.3993 30.4022 28.4056Z" fill="white"/>
</g>
<defs>
<filter id="filter0_d_30_92" x="-7.07187e-06" y="0" width="40.9999" height="41" filterUnits="userSpaceOnUse" color-interpolation-filters="sRGB">
<feFlood flood-opacity="0" result="BackgroundImageFix"/>
<feColorMatrix in="SourceAlpha" type="matrix" values="0 0 0 0 0 0 0 0 0 0 0 0 0 0 0 0 0 0 127 0" result="hardAlpha"/>
<feOffset dy="3.0835"/>
<feGaussianBlur stdDeviation="1.54175"/>
<feColorMatrix type="matrix" values="0 0 0 0 0 0 0 0 0 0 0 0 0 0 0 0 0 0 0.25 0"/>
<feBlend mode="normal" in2="BackgroundImageFix" result="effect1_dropShadow_30_92"/>
<feBlend mode="normal" in="SourceGraphic" in2="effect1_dropShadow_30_92" result="shape"/>
</filter>
</defs>
</svg>
