<?xml version="1.0" encoding="utf-8"?>
<!-- Generator: Adobe Illustrator 27.5.0, SVG Export Plug-In . SVG Version: 6.00 Build 0)  -->
<svg version="1.1" id="_x2014_ëîé_x5F_1" xmlns="http://www.w3.org/2000/svg" xmlns:xlink="http://www.w3.org/1999/xlink"
	 x="0px" y="0px" viewBox="0 0 800 1255.245" style="enable-background:new 0 0 800 1255.245;" xml:space="preserve">
<g>
	<g>
		<g>
			<rect x="175.371" y="949.781" style="fill:#BF8D60;" width="390.946" height="37.144"/>
			<rect x="175.371" y="949.781" style="opacity:0.19;fill:#050505;" width="390.946" height="11.552"/>
		</g>
		<g>
			<linearGradient id="SVGID_1_" gradientUnits="userSpaceOnUse" x1="156.4478" y1="901.3696" x2="497.5556" y2="901.3696">
				<stop  offset="0" style="stop-color:#E7C39D"/>
				<stop  offset="0.1604" style="stop-color:#E1BD96"/>
				<stop  offset="0.4212" style="stop-color:#DCB891"/>
				<stop  offset="0.8535" style="stop-color:#D6B490"/>
			</linearGradient>
			<path style="fill:url(#SVGID_1_);" d="M488.46,852.958l-117.628,2.809l-117.602-2.809c0,0-20.709,63.309-77.857,96.823h390.946
				C509.168,916.267,488.46,852.958,488.46,852.958z"/>
			<path style="opacity:0.5;fill:#E4BD93;" d="M472.509,947.589c0.51,0.701,1.046,1.431,1.581,2.192h92.227
				c-57.149-33.514-77.857-96.823-77.857-96.823l-48.537,0.875C445.345,886.94,453.382,917.962,472.509,947.589z"/>
			<defs>
				<filter id="Adobe_OpacityMaskFilter" filterUnits="userSpaceOnUse" x="175.371" y="852.958" width="390.946" height="96.823">
					<feFlood  style="flood-color:white;flood-opacity:1" result="back"/>
					<feBlend  in="SourceGraphic" in2="back" mode="normal"/>
				</filter>
			</defs>
			
				<mask maskUnits="userSpaceOnUse" x="175.371" y="852.958" width="390.946" height="96.823" id="SVGID_00000150815428673779023330000013474068683731533705_">
				<g style="filter:url(#Adobe_OpacityMaskFilter);">
					<defs>
						
							<filter id="Adobe_OpacityMaskFilter_00000041280087746888778790000016397847066704063367_" filterUnits="userSpaceOnUse" x="314.852" y="713.039" width="148.192" height="36.702">
							<feFlood  style="flood-color:white;flood-opacity:1" result="back"/>
							<feBlend  in="SourceGraphic" in2="back" mode="normal"/>
						</filter>
					</defs>
					
						<mask maskUnits="userSpaceOnUse" x="314.852" y="713.039" width="148.192" height="36.702" id="SVGID_00000150815428673779023330000013474068683731533705_">
						<g style="filter:url(#Adobe_OpacityMaskFilter_00000041280087746888778790000016397847066704063367_);">
						</g>
					</mask>
					
						<linearGradient id="SVGID_00000139268450503663848800000009150685034329019541_" gradientUnits="userSpaceOnUse" x1="322.1769" y1="731.3893" x2="441.612" y2="731.3893">
						<stop  offset="0.0836" style="stop-color:#FFFFFF"/>
						<stop  offset="0.146" style="stop-color:#DBDBDB"/>
						<stop  offset="0.2704" style="stop-color:#9A9A9A"/>
						<stop  offset="0.3889" style="stop-color:#636363"/>
						<stop  offset="0.498" style="stop-color:#383838"/>
						<stop  offset="0.5959" style="stop-color:#191919"/>
						<stop  offset="0.679" style="stop-color:#070707"/>
						<stop  offset="0.7374" style="stop-color:#000000"/>
					</linearGradient>
					
						<path style="mask:url(#SVGID_00000150815428673779023330000013474068683731533705_);fill:url(#SVGID_00000139268450503663848800000009150685034329019541_);" d="
						M433.531,713.039l-44.588,1.065l-44.578-1.065c0,0-7.85,23.998-29.513,36.702h148.192
						C441.381,737.036,433.531,713.039,433.531,713.039z"/>
				</g>
			</mask>
			
				<linearGradient id="SVGID_00000103976424606773605170000014943419424865931954_" gradientUnits="userSpaceOnUse" x1="194.6948" y1="901.3696" x2="509.7766" y2="901.3696">
				<stop  offset="0.0836" style="stop-color:#EBCCAD"/>
				<stop  offset="0.1273" style="stop-color:#EACAAA"/>
				<stop  offset="0.485" style="stop-color:#E0BD98"/>
				<stop  offset="0.7374" style="stop-color:#DCB891"/>
			</linearGradient>
			<path style="opacity:0.5;fill:url(#SVGID_00000103976424606773605170000014943419424865931954_);" d="M488.46,852.958
				l-117.628,2.809l-117.602-2.809c0,0-20.709,63.309-77.857,96.823h390.946C509.168,916.267,488.46,852.958,488.46,852.958z"/>
			<g>
				<defs>
					<path id="SVGID_00000096746733201748513090000000292271540870714759_" d="M488.46,854.082l-117.628,2.742l-117.602-2.742
						c0,0-20.709,61.79-77.857,94.5h390.946C509.168,915.872,488.46,854.082,488.46,854.082z"/>
				</defs>
				<clipPath id="SVGID_00000040534737860966285290000008775730401540073377_">
					<use xlink:href="#SVGID_00000096746733201748513090000000292271540870714759_"  style="overflow:visible;"/>
				</clipPath>
				
					<rect x="216.767" y="857.948" style="opacity:0.19;clip-path:url(#SVGID_00000040534737860966285290000008775730401540073377_);fill:#050505;" width="301.747" height="24.718"/>
			</g>
			<g>
				<defs>
					
						<filter id="Adobe_OpacityMaskFilter_00000173142126531525288620000002097816785404996230_" filterUnits="userSpaceOnUse" x="197.119" y="853.396" width="126.337" height="96.385">
						<feFlood  style="flood-color:white;flood-opacity:1" result="back"/>
						<feBlend  in="SourceGraphic" in2="back" mode="normal"/>
					</filter>
				</defs>
				
					<mask maskUnits="userSpaceOnUse" x="197.119" y="853.396" width="126.337" height="96.385" id="SVGID_00000017480610542338414800000010489050668592380853_">
					<g style="filter:url(#Adobe_OpacityMaskFilter_00000173142126531525288620000002097816785404996230_);">
						<defs>
							
								<filter id="Adobe_OpacityMaskFilter_00000133525105400385926170000001324461330400179845_" filterUnits="userSpaceOnUse" x="323.096" y="713.204" width="47.889" height="36.536">
								<feFlood  style="flood-color:white;flood-opacity:1" result="back"/>
								<feBlend  in="SourceGraphic" in2="back" mode="normal"/>
							</filter>
						</defs>
						
							<mask maskUnits="userSpaceOnUse" x="323.096" y="713.204" width="47.889" height="36.536" id="SVGID_00000017480610542338414800000010489050668592380853_">
							<g style="filter:url(#Adobe_OpacityMaskFilter_00000133525105400385926170000001324461330400179845_);">
							</g>
						</mask>
						
							<linearGradient id="SVGID_00000150088958579037395500000004396931617015132323_" gradientUnits="userSpaceOnUse" x1="347.0405" y1="750.271" x2="347.0405" y2="713.6178">
							<stop  offset="0.0836" style="stop-color:#FFFFFF"/>
							<stop  offset="0.146" style="stop-color:#DBDBDB"/>
							<stop  offset="0.2704" style="stop-color:#9A9A9A"/>
							<stop  offset="0.3889" style="stop-color:#636363"/>
							<stop  offset="0.498" style="stop-color:#383838"/>
							<stop  offset="0.5959" style="stop-color:#191919"/>
							<stop  offset="0.679" style="stop-color:#070707"/>
							<stop  offset="0.7374" style="stop-color:#000000"/>
						</linearGradient>
						
							<path style="mask:url(#SVGID_00000017480610542338414800000010489050668592380853_);fill:url(#SVGID_00000150088958579037395500000004396931617015132323_);" d="
							M370.985,713.758l-19.453-0.554c-2.603,10.497-14.863,30.583-28.436,36.536h31.448
							C368.44,740.816,369.478,724.512,370.985,713.758z"/>
					</g>
				</mask>
				
					<linearGradient id="SVGID_00000066494280521376673470000016773083497952346552_" gradientUnits="userSpaceOnUse" x1="260.2875" y1="951.1815" x2="260.2875" y2="854.4867">
					<stop  offset="0.0836" style="stop-color:#EBCCAD"/>
					<stop  offset="0.7374" style="stop-color:#EBCCAD"/>
				</linearGradient>
				<path style="opacity:0.5;fill:url(#SVGID_00000066494280521376673470000016773083497952346552_);" d="M323.456,854.857
					l-51.32-1.461c-6.868,27.693-39.209,80.682-75.017,96.385h82.964C316.742,926.239,319.479,883.226,323.456,854.857z"/>
			</g>
		</g>
		<g>
			<g>
				<g>
					
						<linearGradient id="SVGID_00000098198890722475060610000012483803031754487473_" gradientUnits="userSpaceOnUse" x1="96.9524" y1="993.4871" x2="421.263" y2="993.4871">
						<stop  offset="0" style="stop-color:#E7C39D"/>
						<stop  offset="0.1604" style="stop-color:#E1BD96"/>
						<stop  offset="0.4212" style="stop-color:#DCB891"/>
						<stop  offset="0.8535" style="stop-color:#D6B490"/>
					</linearGradient>
					<path style="fill:url(#SVGID_00000098198890722475060610000012483803031754487473_);" d="M575.975,1001.164
						c0-13.709-9.565-24.834-21.407-24.834h-371.73c-11.842,0-21.407,11.125-21.407,24.834c0,2.206,0.251,7.472,0.715,9.479
						l413.506-0.683C576.123,1007.953,575.975,1003.37,575.975,1001.164z"/>
				</g>
				<g style="opacity:0.5;">
					<path style="fill:#D6B490;" d="M575.725,997.503H161.681c-0.184,1.169-0.251,2.411-0.251,3.662
						c0,2.206,0.251,7.472,0.715,9.479l413.506-0.683c0.471-2.008,0.324-6.591,0.324-8.797
						C575.975,999.914,575.872,998.671,575.725,997.503z"/>
				</g>
				<g>
					<g>
						<defs>
							<path id="SVGID_00000062900398800086348060000001679345783131436695_" d="M645.098,1109.965
								c0-56.449-31.591-102.217-70.597-102.217H162.867c-38.968,0-70.56,45.768-70.56,102.217c0,0.165,0,0.28,0,0.445h552.79
								C645.098,1110.245,645.098,1110.13,645.098,1109.965z"/>
						</defs>
						
							<linearGradient id="SVGID_00000021083233341992283970000018364431775188447381_" gradientUnits="userSpaceOnUse" x1="92.3077" y1="1059.0785" x2="645.0981" y2="1059.0785">
							<stop  offset="0" style="stop-color:#E7C39D"/>
							<stop  offset="0.1604" style="stop-color:#E1BD96"/>
							<stop  offset="0.4212" style="stop-color:#DCB891"/>
							<stop  offset="0.8535" style="stop-color:#D6B490"/>
						</linearGradient>
						
							<use xlink:href="#SVGID_00000062900398800086348060000001679345783131436695_"  style="overflow:visible;fill:url(#SVGID_00000021083233341992283970000018364431775188447381_);"/>
						<clipPath id="SVGID_00000003097296524856132300000009630778604554796175_">
							<use xlink:href="#SVGID_00000062900398800086348060000001679345783131436695_"  style="overflow:visible;"/>
						</clipPath>
						
							<linearGradient id="SVGID_00000059284639024562890390000009797759376186603950_" gradientUnits="userSpaceOnUse" x1="203.9276" y1="1125.2999" x2="209.6214" y2="926.0204">
							<stop  offset="0.0836" style="stop-color:#EBCCAD"/>
							<stop  offset="0.7374" style="stop-color:#EBCCAD"/>
						</linearGradient>
						
							<path style="clip-path:url(#SVGID_00000003097296524856132300000009630778604554796175_);fill:url(#SVGID_00000059284639024562890390000009797759376186603950_);" d="
							M206.664,1003.482c0,0-60.629,31.787-47.078,113.609h53.937c0,0-8.64-89.596,41.151-113.609H206.664z"/>
					</g>
					<path style="opacity:0.5;fill:#E4BD93;" d="M574.502,1007.748h-91.79c-30.619,40.181-99.742,65.089-132.092,76.346
						c-35.873,12.45-73.581,21.732-111.761,26.316h406.24c0-0.165,0-0.28,0-0.445
						C645.098,1053.516,613.507,1007.748,574.502,1007.748z"/>
				</g>
			</g>
		</g>
		<g>
			<defs>
				<path id="SVGID_00000029752712215128131630000014971967901312667562_" d="M645.098,1109.965
					c0-56.449-31.591-102.217-70.597-102.217H162.867c-38.968,0-70.56,45.768-70.56,102.217c0,0.165,0,0.28,0,0.445h552.79
					C645.098,1110.245,645.098,1110.13,645.098,1109.965z"/>
			</defs>
			<clipPath id="SVGID_00000040555922617478525620000003594549934801977995_">
				<use xlink:href="#SVGID_00000029752712215128131630000014971967901312667562_"  style="overflow:visible;"/>
			</clipPath>
			
				<rect x="116.893" y="1003.832" style="opacity:0.19;clip-path:url(#SVGID_00000040555922617478525620000003594549934801977995_);fill:#050505;" width="514.245" height="25.5"/>
		</g>
	</g>
	<g>
		<g>
			<defs>
				
					<rect id="SVGID_00000095327497037240228710000002582686053947839931_" x="250.767" y="825.334" width="240.123" height="36.125"/>
			</defs>
			<use xlink:href="#SVGID_00000095327497037240228710000002582686053947839931_"  style="overflow:visible;fill:#BF8D60;"/>
			<clipPath id="SVGID_00000150794996986676837090000017358268596799495324_">
				<use xlink:href="#SVGID_00000095327497037240228710000002582686053947839931_"  style="overflow:visible;"/>
			</clipPath>
			
				<rect x="235.892" y="823.209" style="opacity:0.19;clip-path:url(#SVGID_00000150794996986676837090000017358268596799495324_);fill:#050505;" width="263.497" height="17"/>
		</g>
	</g>
	<g>
		
			<linearGradient id="SVGID_00000085952284249234762330000012929828391050432181_" gradientUnits="userSpaceOnUse" x1="381.4527" y1="793.0213" x2="381.4527" y2="827.4885">
			<stop  offset="0" style="stop-color:#E7C39D"/>
			<stop  offset="0.1604" style="stop-color:#E1BD96"/>
			<stop  offset="0.4212" style="stop-color:#DCB891"/>
			<stop  offset="0.8535" style="stop-color:#D6B490"/>
		</linearGradient>
		<path style="fill:url(#SVGID_00000085952284249234762330000012929828391050432181_);" d="M541.102,826.943H221.846
			c-9.861,0-17.829-5.717-17.829-12.778c0-7.013,7.968-12.754,17.829-12.754h319.255c9.819,0,17.787,5.741,17.787,12.754
			C558.888,821.226,550.92,826.943,541.102,826.943z"/>
		
			<linearGradient id="SVGID_00000115485425381143779390000008786325457719344007_" gradientUnits="userSpaceOnUse" x1="381.4527" y1="793.102" x2="381.4527" y2="827.4872">
			<stop  offset="0" style="stop-color:#E7C39D"/>
			<stop  offset="0.1604" style="stop-color:#E1BD96"/>
			<stop  offset="0.4212" style="stop-color:#DCB891"/>
			<stop  offset="0.8535" style="stop-color:#D6B490"/>
		</linearGradient>
		<path style="opacity:0.5;fill:url(#SVGID_00000115485425381143779390000008786325457719344007_);" d="M204.303,812.247
			c-0.126,0.621-0.286,1.266-0.286,1.918c0,7.061,7.968,12.778,17.829,12.778h319.255c9.819,0,17.787-5.717,17.787-12.778
			c0-0.651-0.118-1.297-0.286-1.918H204.303z"/>
	</g>
	<g>
		<path style="fill:#BF8D60;" d="M488.414,200.983c0,0-3.676-32.412,27.216-55.691c1.307-0.985,3.2-0.292,3.509,1.316
			c1.644,8.567,6.465,31.576,13.7,48.138l-3.7,14.344h-23.375L488.414,200.983z"/>
		
			<linearGradient id="SVGID_00000169537230795839469160000003189284138560475029_" gradientUnits="userSpaceOnUse" x1="154.4426" y1="482.3456" x2="707.4396" y2="482.3456">
			<stop  offset="0" style="stop-color:#E7C39D"/>
			<stop  offset="0.1604" style="stop-color:#E1BD96"/>
			<stop  offset="0.4212" style="stop-color:#DCB891"/>
			<stop  offset="0.8535" style="stop-color:#D6B490"/>
		</linearGradient>
		<path style="fill:url(#SVGID_00000169537230795839469160000003189284138560475029_);" d="M707.072,506.07
			c2.932-32.659-11.877-66.318-37.818-86.352c0.029-0.628,0.039-0.833,0.068-1.461c21.474-13.743,33.28-41.22,28.244-66.24
			c-4.118-20.461-19.252-38.114-38.369-46.254c-5.034-2.143-6.638-8.455-3.272-12.768c7.833-10.038,9.669-25.289,4.348-37.288
			c-7.306-16.479-24.663-26.724-42.353-30.189c-14.961-2.93-30.323-1.76-45.524,0.048c-1.216,0.145-2.226-0.886-2.068-2.1
			c2.814-21.538,1.23-46.171-12.164-68.041c-0.545-0.89-1.719-1.151-2.597-0.586c-6.622,4.259-31.644,21.823-34.942,45.991
			c-0.165,1.208-1.352,1.982-2.494,1.555c-16.928-6.314-126.049-44.186-197.832,0.073c-0.737,0.454-1.067,1.365-0.802,2.19
			l10.908,33.947c0.976,3.036,0.343,6.359-1.68,8.825c-12.363,13.892-58.246,63.822-113.591,104.001
			c-64.945,47.157-58.449,38.173-60.617,62.867c-0.829,9.484,5.053,22.606,14.071,35.557l0.043,0.08l0.126,0.161
			c3.181,4.548,6.742,9.067,10.54,13.401l0.116,0.147l0.055,0.05c13.455,15.306,29.771,28.221,42.156,31.432
			c10.536,2.737,36.749-6.615,66.636-16.611c11.886-3.977,24.62-1.29,34.904,6.05c9.297,6.645,20.514,10.562,32.678,10.562
			c21.03,0,39.308-11.614,49.602-28.899l0.189,0.05v20.658c0,17.038-10.264,32.39-25.805,37.894
			c-54.016,19.13-174.102,84.082-175.482,283.431c-0.007,1.043,0.842,1.906,1.885,1.906h348.931c1.659,0,2.493-1.985,1.342-3.181
			c-4.107-4.266-10.154-11.458-15.659-21.542c-0.816-1.494,0.621-3.227,2.24-2.699c1,0.326,1.992,0.645,2.98,0.96
			c0.05,0.016,0.099,0.034,0.148,0.055c15.689,6.777,32.539,10.935,49.482,9.655c0.548-0.042,1.096-0.117,1.644-0.171
			c46.568,0.233,56.29-31.673,56.857-56.26c0.277-11.86-6.055-22.284-15.506-28.958c-0.523-0.369-1.034-0.799-1.524-1.297
			c-0.998-1.012-0.599-2.699,0.754-3.136c25.312-8.183,47.744-27.839,53.713-53.651c6.274-27.127-10.364-59.193-37.534-64.882
			c-0.037-0.266-0.034-0.246-0.072-0.512C683.361,569.521,704.125,538.896,707.072,506.07z M289.645,295.254l-0.037,0.033
			c0.016-0.016,0.032-0.03,0.048-0.046L289.645,295.254z"/>
		<g>
			<defs>
				<path id="SVGID_00000110439979862848873040000010632840927387167881_" d="M707.325,506.377
					c2.932-32.659-11.877-66.318-37.819-86.352c0.029-0.628,0.039-0.833,0.068-1.461c21.474-13.743,33.28-41.22,28.245-66.24
					c-4.118-20.461-19.252-38.114-38.369-46.254c-5.034-2.144-6.638-8.455-3.272-12.768c7.834-10.038,9.669-25.289,4.349-37.288
					c-7.307-16.479-24.663-26.724-42.353-30.189c-14.961-2.93-30.323-1.76-45.524,0.048c-1.216,0.145-2.226-0.886-2.068-2.1
					c2.813-21.538,1.23-46.171-12.164-68.041c-0.545-0.89-1.72-1.151-2.597-0.586c-6.622,4.259-31.644,21.823-34.942,45.991
					c-0.165,1.208-1.352,1.981-2.493,1.555c-16.928-6.314-126.049-44.186-197.832,0.073c-0.737,0.455-1.067,1.366-0.802,2.19
					l10.908,33.946c0.976,3.036,0.343,6.359-1.679,8.824c-12.363,13.892-58.246,63.822-113.591,104.001
					c-64.945,47.157-58.449,38.173-60.616,62.867c-0.83,9.484,5.053,22.606,14.071,35.557l0.044,0.08l0.126,0.16
					c3.181,4.548,6.742,9.067,10.54,13.401l0.116,0.147l0.056,0.05c13.455,15.306,29.771,28.221,42.156,31.432
					c10.536,2.737,36.749-6.615,66.635-16.612c11.886-3.977,24.62-1.29,34.904,6.05c9.298,6.645,20.514,10.562,32.679,10.562
					c21.03,0,39.308-11.614,49.602-28.9l0.189,0.05v20.658c0,17.038-10.264,32.39-25.805,37.894
					c-54.016,19.13-174.102,84.082-175.482,283.431c-0.007,1.043,0.842,1.906,1.884,1.906l348.931,0
					c1.659,0,2.493-1.986,1.342-3.181c-4.107-4.266-10.154-11.458-15.659-21.542c-0.816-1.494,0.622-3.227,2.24-2.699
					c1,0.326,1.992,0.645,2.981,0.96c0.05,0.016,0.099,0.034,0.147,0.055c15.689,6.777,32.54,10.935,49.483,9.655
					c0.548-0.041,1.096-0.117,1.644-0.171c46.568,0.233,56.29-31.673,56.857-56.26c0.277-11.86-6.055-22.284-15.507-28.958
					c-0.523-0.369-1.034-0.799-1.524-1.297c-0.998-1.012-0.599-2.699,0.754-3.136c25.312-8.183,47.744-27.839,53.713-53.651
					c6.273-27.127-10.365-59.193-37.534-64.882c-0.037-0.266-0.035-0.246-0.072-0.512
					C683.614,569.828,704.378,539.203,707.325,506.377z M289.898,295.561l-0.037,0.032c0.016-0.015,0.032-0.03,0.048-0.046
					L289.898,295.561z"/>
			</defs>
			<clipPath id="SVGID_00000014607345730101837600000005066333858042189757_">
				<use xlink:href="#SVGID_00000110439979862848873040000010632840927387167881_"  style="overflow:visible;"/>
			</clipPath>
			<g style="clip-path:url(#SVGID_00000014607345730101837600000005066333858042189757_);">
				<path style="fill:#C99B6E;" d="M408.015,457.712c0,0,7.37,18.015,7.449,36.342c0.075,17.382-9.691,33.287-24.722,42.018
					c-44.844,26.049-172.199,114.611-163.396,276.174l-43.568,7.348l-8.408-108.154l21.748-89.469l41.739-57.571l45.908-30.189
					l86.078-22.715l24.421-19.785L408.015,457.712z"/>
				<path style="fill:#C99B6E;" d="M445.432,364.46c-0.652-6.774,47.205,76.867-39.73,102.06c0,0-17.495,71.709-125.527,42.076
					l-44.283,0.116l-25.5-10.625c0,0,44.705-9.935,77.115-38.573c7.608-6.723,18.52-8.134,27.69-3.777
					c21.728,10.323,60.957,22.265,82.879-11.578c2.872-4.434,6.897-8.037,11.602-10.439
					C423.155,426.839,449.588,407.675,445.432,364.46z"/>
			</g>
			<path style="clip-path:url(#SVGID_00000014607345730101837600000005066333858042189757_);fill:#C99B6E;" d="M572.398,225.565
				c0,0,178.824,309.676-69.278,575.846h-72.178C430.941,801.411,694.281,722.286,572.398,225.565z"/>
			<path style="clip-path:url(#SVGID_00000014607345730101837600000005066333858042189757_);fill:#C99B6E;" d="M665.137,253.714
				c0,0-6.375,61.624-70.124,53.124l10.625,42.5c0,0,40.375-65.874,91.374-14.875L665.137,253.714z"/>
			<path style="clip-path:url(#SVGID_00000014607345730101837600000005066333858042189757_);fill:#C99B6E;" d="M703.387,370.588
				c0,0-27.625,46.749-89.249,33.999l4.25,27.625c0,0,38.25-22.933,84.999,15.096V370.588z"/>
			<path style="clip-path:url(#SVGID_00000014607345730101837600000005066333858042189757_);fill:#C99B6E;" d="M700.807,533.273
				c-1.67,3.063-54.795,51.938-90.919,37.063l-8.5,38.25c0,0,65.875-38.25,95.624,34L700.807,533.273z"/>
			<path style="clip-path:url(#SVGID_00000014607345730101837600000005066333858042189757_);fill:#C99B6E;" d="M681.219,673.389
				c0,0-47.975,34.323-114.903,11.322l-7.428,24.458c0,0,97.749-7.084,106.249,52.415L681.219,673.389z"/>
		</g>
		
			<linearGradient id="SVGID_00000113348653584405719210000014624041484841438879_" gradientUnits="userSpaceOnUse" x1="250.4594" y1="682.262" x2="413.0111" y2="682.262">
			<stop  offset="0.1042" style="stop-color:#EBCCAD"/>
			<stop  offset="0.9254" style="stop-color:#EBCCAD"/>
		</linearGradient>
		<path style="opacity:0.5;fill:url(#SVGID_00000113348653584405719210000014624041484841438879_);" d="M413.011,552.277
			c0,0-170.745,91.82-162.245,257.875l80.969,2.095C331.735,812.247,286.259,748.84,413.011,552.277z"/>
		<g>
			
				<linearGradient id="SVGID_00000062889118949484044910000011754625792361775530_" gradientUnits="userSpaceOnUse" x1="158.2155" y1="364.4595" x2="402.1335" y2="364.4595">
				<stop  offset="0.0836" style="stop-color:#EBCCAD"/>
				<stop  offset="0.7374" style="stop-color:#EBCCAD"/>
			</linearGradient>
			<path style="fill:url(#SVGID_00000062889118949484044910000011754625792361775530_);" d="M342.255,248.603l-0.029,0.109
				c-2.667,0.192-5.618,0.652-9.17,1.696c0,0-40.106,43.677-55.83,55.905c-15.72,12.228-84.721,66.377-113.105,86.896
				c0,0-10.047,13.102-3.933,24.893c0,0,0.364-1.039,1.055-2.658c-2.472,44.143,44.363,67.32,44.363,67.32
				s-38.431-23.168-30.571-53.306c7.864-30.129,20.088,3.936,20.088,3.936c16.287-1.434,17.246-18.942,15.962-30.876
				c-0.8-7.435,2.387-14.76,8.257-19.393c70.184-55.384,115.528-54.986,115.528-54.986c-3.339-2.145-8.424-3.954-14.025-5.466
				c-2.173-1.024-15.199-6.96-24.831-6.669c-1.807,0.055-3.444-1.041-3.92-2.785l-0.078-0.286c-0.546-2,0.6-4.085,2.593-4.655
				c12.608-3.607,29.314-3.28,37.771-2.804c4.058,0.228,8.129-0.079,12.085-1.015c32.884-7.776,48.512-24.123,55.733-35.851
				c4.477-7.271,0.836-16.73-7.355-19.144C369.396,242.555,342.255,248.603,342.255,248.603z"/>
			
				<linearGradient id="SVGID_00000022552003144027960940000011678290600845903532_" gradientUnits="userSpaceOnUse" x1="333.0547" y1="214.6398" x2="498.6144" y2="214.6398">
				<stop  offset="0.0836" style="stop-color:#EBCCAD"/>
				<stop  offset="0.7374" style="stop-color:#EBCCAD"/>
			</linearGradient>
			<path style="fill:url(#SVGID_00000022552003144027960940000011678290600845903532_);" d="M350.844,238.131
				c16.705-4.626,33.391-4.332,43.023-3.56c3.47,0.278,6.916-1.242,8.846-4.138c10.315-15.479,95.902-27.055,95.902-27.055
				c-81.066-19.924-131.75-11.861-154.739-5.295c-8.117,2.32-12.698,10.879-10.085,18.913l4.765,14.663
				C340.222,236.789,345.645,239.571,350.844,238.131z"/>
		</g>
		<path style="fill:#C99B6E;" d="M533.382,207.847l21.03,8.762c1.349,0.562,2.885-0.115,3.372-1.493
			c1.863-5.271,5.167-18.893-0.052-40.13c-0.483-1.965-2.749-2.935-4.461-1.857c-5.24,3.299-15.176,11.856-21.348,31.628
			C531.535,206.002,532.179,207.346,533.382,207.847z"/>
	</g>
</g>
</svg>
